<?xml version="1.0" encoding="utf-8"?>
<!-- Generator: Adobe Illustrator 26.2.1, SVG Export Plug-In . SVG Version: 6.00 Build 0)  -->
<svg version="1.1" id="图层_1" xmlns="http://www.w3.org/2000/svg" xmlns:xlink="http://www.w3.org/1999/xlink" x="0px" y="0px"
	 viewBox="0 0 512 512" style="enable-background:new 0 0 512 512;" xml:space="preserve">
<style type="text/css">
	.st0{fill:none;}
</style>
<g>
	<path class="st0" d="M151.01,170.81l-31.93-31.93c-5.47-5.47-5.47-14.33,0-19.8s14.33-5.47,19.8,0l31.93,31.93
		c29.34-33.16,49.18-74.94,55.23-121.05c-23.08,3.03-45.07,9.52-65.44,18.92l12.83,12.83c5.47,5.47,5.47,14.33,0,19.8
		s-14.33,5.47-19.8,0l-18.72-18.72c-29.13,18.29-53.83,42.99-72.12,72.12l18.72,18.72c5.47,5.47,5.47,14.33,0,19.8
		s-14.33,5.47-19.8,0L48.88,160.6c-9.4,20.37-15.89,42.36-18.92,65.44C76.07,219.99,117.85,200.15,151.01,170.81z"/>
	<path class="st0" d="M481.82,224.47c-8.95-64.69-45.04-120.71-96.4-156.19C383.18,77.83,382,87.78,382,98
		C382,159.41,424.58,210.86,481.82,224.47z"/>
	<path class="st0" d="M194.17,429.55c-5.47,5.47-14.33,5.47-19.8,0s-5.47-14.33,0-19.8l18.84-18.84
		c-18.29-29.13-42.99-53.83-72.12-72.12l-18.84,18.84c-5.47,5.47-14.33,5.47-19.8,0l0,0c-5.47-5.47-5.47-14.33,0-19.8l12.95-12.95
		c-20.37-9.4-42.36-15.89-65.44-18.92c6.05,46.11,25.89,87.89,55.23,121.05L117,375.2c5.47-5.47,14.33-5.47,19.8,0h0
		c5.47,5.47,5.47,14.33,0,19.8l-31.81,31.81c33.16,29.34,74.94,49.18,121.05,55.23c-3.03-23.08-9.52-45.07-18.92-65.44
		L194.17,429.55z"/>
	<path class="st0" d="M354,98c0-2.18,0.06-4.35,0.14-6.51C310.91,132.99,284,191.35,284,256c0,78.47,39.65,147.68,100,188.7
		c60.35-41.02,100-110.23,100-188.7c0-0.83-0.02-1.65-0.03-2.48C410.08,240.29,354,175.69,354,98z"/>
	<path class="st0" d="M256,256c0-83.37,39.86-157.43,101.56-204.17C326.98,36.59,292.49,28,256,28c-0.51,0-1.02,0.02-1.53,0.02
		c-5.95,54.6-29.07,104.04-63.84,142.81c-6.24,6.95-12.85,13.56-19.8,19.8c-38.77,34.77-88.21,57.89-142.81,63.84
		c0,0.51-0.02,1.02-0.02,1.53s0.02,1.02,0.02,1.53c31.52,3.43,61.31,12.58,88.33,26.39c8.62,4.41,16.96,9.3,24.98,14.62
		c28.59,18.97,53.15,43.53,72.12,72.12c5.32,8.02,10.21,16.36,14.62,24.98c13.81,27.02,22.96,56.81,26.39,88.33
		c0.51,0,1.02,0.02,1.53,0.02c36.49,0,70.98-8.59,101.56-23.83C295.86,413.43,256,339.37,256,256z"/>
	<path d="M510.47,227.98c-7.82-71.82-45.34-134.72-100.03-176.15c-4.97-3.77-10.09-7.36-15.34-10.76c-3.64-2.36-7.34-4.64-11.1-6.81
		c-4.33-2.51-8.75-4.88-13.24-7.14C336.24,9.78,297.27,0,256,0c-9.47,0-18.82,0.53-28.02,1.53c-31.52,3.43-61.31,12.58-88.33,26.39
		c-8.62,4.41-16.96,9.3-24.98,14.62c-28.59,18.97-53.15,43.53-72.12,72.12c-5.32,8.02-10.21,16.36-14.62,24.98
		c-13.81,27.02-22.96,56.81-26.39,88.33C0.53,237.18,0,246.53,0,256s0.53,18.82,1.53,28.02c5.95,54.6,29.07,104.04,63.84,142.81
		c6.24,6.95,12.85,13.56,19.8,19.8c38.77,34.77,88.21,57.89,142.81,63.84c9.2,1,18.55,1.53,28.02,1.53
		c46.63,0,90.34-12.47,128-34.26c9.19-5.32,18.02-11.19,26.44-17.58C472.14,413.43,512,339.37,512,256
		C512,246.53,511.47,237.18,510.47,227.98z M385.42,68.28c51.37,35.48,87.45,91.49,96.4,156.19C424.58,210.86,382,159.41,382,98
		C382,87.78,383.18,77.83,385.42,68.28z M61.71,173.43c5.47,5.47,14.33,5.47,19.8,0s5.47-14.33,0-19.8l-18.72-18.72
		c18.29-29.13,42.99-53.83,72.12-72.12l18.72,18.72c5.47,5.47,14.33,5.47,19.8,0s5.47-14.33,0-19.8L160.6,48.88
		c20.37-9.4,42.36-15.89,65.44-18.92c-6.05,46.11-25.89,87.89-55.23,121.05l-31.93-31.93c-5.47-5.47-14.33-5.47-19.8,0
		s-5.47,14.33,0,19.8l31.93,31.93c-33.16,29.34-74.94,49.18-121.05,55.23c3.03-23.08,9.52-45.07,18.92-65.44L61.71,173.43z
		 M104.99,426.81L136.8,395c5.47-5.47,5.47-14.33,0-19.8h0c-5.47-5.47-14.33-5.47-19.8,0l-31.81,31.81
		c-29.34-33.16-49.18-74.94-55.23-121.05c23.08,3.03,45.07,9.52,65.44,18.92l-12.95,12.95c-5.47,5.47-5.47,14.33,0,19.8l0,0
		c5.47,5.47,14.33,5.47,19.8,0l18.84-18.84c29.13,18.29,53.83,42.99,72.12,72.12l-18.84,18.84c-5.47,5.47-5.47,14.33,0,19.8
		s14.33,5.47,19.8,0l12.95-12.95c9.4,20.37,15.89,42.36,18.92,65.44C179.93,475.99,138.15,456.15,104.99,426.81z M256,484
		c-0.51,0-1.02-0.02-1.53-0.02c-3.43-31.52-12.58-61.31-26.39-88.33c-4.41-8.62-9.3-16.96-14.62-24.98
		c-18.97-28.59-43.53-53.15-72.12-72.12c-8.02-5.32-16.36-10.21-24.98-14.62c-27.02-13.81-56.81-22.96-88.33-26.39
		c0-0.51-0.02-1.02-0.02-1.53s0.02-1.02,0.02-1.53c54.6-5.95,104.04-29.07,142.81-63.84c6.95-6.24,13.56-12.85,19.8-19.8
		c34.77-38.77,57.89-88.21,63.84-142.81c0.51,0,1.02-0.02,1.53-0.02c36.49,0,70.98,8.59,101.56,23.83
		C295.86,98.57,256,172.63,256,256s39.86,157.43,101.56,204.17C326.98,475.41,292.49,484,256,484z M384,444.7
		C323.65,403.68,284,334.47,284,256c0-64.65,26.91-123.01,70.14-164.51C354.06,93.65,354,95.82,354,98
		c0,77.69,56.08,142.29,129.97,155.52c0.01,0.83,0.03,1.65,0.03,2.48C484,334.47,444.35,403.68,384,444.7z"/>
</g>
</svg>
