<?xml version="1.0" encoding="UTF-8"?>
<svg id="_图层_1" data-name="图层_1" xmlns="http://www.w3.org/2000/svg" baseProfile="tiny" version="1.2" viewBox="0 0 93 93">
  <!-- Generator: Adobe Illustrator 30.0.0, SVG Export Plug-In . SVG Version: 2.1.1 Build 123)  -->
  <ellipse cx="46.65" cy="46.36" rx="45.48" ry="45" fill="none" stroke="#fff" stroke-miterlimit="10" stroke-width="2"/>
  <path d="M67.02,72.94c.94-.48,2.12.09,2.64,1.23-.94-.35-1.61-1.05-2.64-1.23Z" fill="#fff"/>
  <path d="M35.39,54.28s-.04.05-.06.07c0-.02,0-.04,0-.06h.09v-.02s-.02.01-.02.01Z" fill="#fbfbfb"/>
  <path d="M52.43,64.56c-.77,0-1.24-.56-.96-1.16.17-.37.41-.68.89-.32.19.14.43.22.63.34.22.14.47.29.44.59-.03.35-.35.41-.61.5-.12.04-.26.03-.39.05Z" fill="#fff"/>
  <path d="M53.45,61.35c-.05.35-.24.74-.57.66-.43-.11-1.05-.25-1.12-.76-.06-.43.47-.51.84-.51.41,0,.8.1.85.62h0Z" fill="#fff"/>
  <path d="M44.1,61.86c-.04.46-.19.88-.75.96-.41.06-.83-.49-.8-1.02.03-.48.19-.92.76-.99.43-.05.79.44.79,1.05Z" fill="#fff"/>
  <g>
    <path d="M22.24,78.1c-.11.92-.59,1.52-1.26,1.96-.51.34-.63-.21-.67-.48-.11-.75-.35-1.48-.33-2.24v-.84c0-.68.31-1.46-.73-1.68.14-.28.33-.25.5-.29.39-.09.83-.83.64-1.15-.2-.34-.43-.08-.59.06-.52.45-1.1.78-1.72,1.07-.24.11-.49.15-.74.22-.52.15-.82-.07-1.1-.45-.34-.45-.24-.94-.15-1.43.02-.13.17-.3.35,0,.52.87,1.58.83,2.18-.04.16-.23-.01-.34-.14-.42-.38-.25-.78-.46-1.01-.88-.16-.29-.41-.11-.63,0-.59.32-1.18.67-1.79.94-.34.15-.75.2-1.06-.09-.32-.3-.18-.67-.08-1.03.05-.19.16-.29.34-.35,1.59-.52,2.67-1.65,3.61-2.95.15-.2.21-.63.58-.45.33.16.6.47.43.91-.24.59-.04.87.59.96.36.05.7.23,1.05.36.55.21.86.06.96-.55.08-.52.11-1.03.06-1.55-.03-.27-.22-.63.18-.71.35-.07.74.04.92.45.16.38.31.76.12,1.18-.05.1-.07.2-.1.3-.54,1.43-.54,1.44.99,1.88.58.17.8.61.55,1.14-.11.24-.32.18-.51.16-.46-.06-.88-.25-1.28-.48-.39-.23-.61-.09-.72.31-.13.5-.26,1.01-.37,1.51-.03.12-.09.29.04.36.15.08.3-.02.41-.14.09-.09.19-.19.23-.31.22-.67.54-.31.77-.05.54.61.23,1.37-.58,1.5-1.12.19-1.23.31-1.29,1.45-.02.39-.02.78,0,1.17.02,1.12.32,1.29,1.35.69v-.02ZM19.22,71.15c.29-.01.29,0,1.06.69.11.1.23.39.45.11.28-.36.12-.94-.3-1.11-.45-.17-.91-.3-1.31-.57-.47-.32-.86-.19-1.23.17-.38.37-.34.57.17.71.36.1.74.07,1.16,0Z" fill="#fff"/>
    <path d="M53,81.32c-.03-.35,0-.54.54-.39.5.14.97-.17,1.39-.45.72-.48.92-1.13.61-1.96-.14-.39-.31-.76-.69-.98-.12-.07-.28-.21-.17-.37.32-.5.86-.54,1.39-.58.48-.04.61.33.6.68,0,.49.22.92.31,1.38.08.42.29.43.65.24.63-.33,1.1-.96,1.88-1,.25-.01.66-.27.71.14.04.35.15.82-.36,1.06-.63.3-1.29.54-1.86.95-.48.35-.51.55,0,.86,1.49.87,3.08,1.4,4.85,1.26.45-.04,1.09-.19,1.26.24.16.41-.43.68-.79.89-.82.46-1.6.76-2.63.35-1.06-.43-2.1-.82-3-1.53-.32-.25-.47-.03-.59.23-.18.39-.33.8-.52,1.18-.44.87-1.2,1.46-1.95,2.04-.14.11-.41.3-.58.05-.12-.18.09-.34.2-.49.62-.94,1.35-1.81,1.59-2.95.03-.13.07-.26.07-.38,0-.16.12-.37-.08-.46-.18-.08-.33.09-.46.2-.44.39-.82.83-1.49.85-.72.01-.88-.15-.88-1.05h0Z" fill="#fff"/>
    <path d="M35.22,81.8c-.68.2-1.24.62-1.84.98-.41.25-.82.46-1.41.58.28-.46.3-.84.92-1.06,1.24-.44,2.36-1.19,3.3-2.14-.03-.06-.05-.12-.08-.18-.79.1-1.59.18-2.38.33-.29.05-.59.08-.7-.14-.15-.3.2-.39.41-.55.31-.24.6-.27.97-.15.64.2,1.3.1,1.95-.03.19-.04.39-.06.4-.34,0-.24-.05-.42-.29-.52-.1-.04-.2-.08-.3-.13-.21-.1-.55-.15-.52-.42s.32-.44.6-.53c.08-.03.17-.04.26-.05.89-.17,1.1-.38.98-1.25-.09-.63.36-.69.72-.71.3-.02.62.19.92.31.21.09.3.29.21.48-.17.38-.41.65.18.99.19.11-.32.78-.67,1.09-.18.15-.42.23-.62.36-.11.07-.24.15-.19.3.05.17.22.11.33.09.49-.06.93-.22,1.22-.66.1-.15.17-.48.47-.3.23.15.03.38.03.58,0,1-.7,1-1.41,1.01-.65.01-1.15.36-1.64.74-.1.08-.23.16-.17.31.06.16.22.11.34.12.22.02.43.02.64.11.47.22.73.44.45,1.04-.37.8-.5,1.7-1.03,2.44-.13.19-.22.46-.51.44-.31-.01-.23-.3-.31-.49-.18-.41-.59-.34-.91-.28-.54.09-.66-.11-.55-.58.13-.57.24-1.14.36-1.71,0-.05,0-.11-.02-.16-.03.02-.07.04-.1.05v.03ZM36.87,81.49c-.14,0-.21,0-.28.02-.29.06-.71,0-.78.33-.07.3.35.22.53.33.26.16.19.31-.04.41-.14.06-.3.07-.44.12-.33.12-.37.42-.34.69.03.29.3.26.51.26.74.01,1.53-1.17,1.27-1.88-.09-.26-.29-.3-.44-.29h0Z" fill="#fff"/>
    <path d="M70.55,71.91c-.47-.47-1-.75-1.49-1.09-.37-.25-.47-.83-.93-1.09-.14-.08-.03-.26.05-.34.39-.37.31-.75.02-1.09-.31-.36-.09-.61.13-.84.24-.26.54-.23.83-.05.31.19.29.41.13.71-.27.52.09.69.53.76.21.03.34.45.59.16.29-.33.72-.6.65-1.14-.07-.51-.26-.57-.77-.25-.22-.69.28-1.4,1.01-1.38.33,0,.59.1.58.52-.03.92.32,1.72.81,2.48.23.35.38.43.65.07.24-.32.53-.58.91-.71.36-.13.67-.12.92.24.23.32.22.59-.03.88-.35.4-.56.94-1.12,1.14-.03-.03-.08-.05-.09-.08-.18-.79-.26-.81-.89-.3-.21.17-.34.38-.49.59-.55.78-1.07,1.59-1.71,2.3-.57.64-.71,1.35-.71,2.14,0,.04.02.09.02.13,0,.41.06.97-.29,1.13-.33.15-.62-.38-.93-.58-.4-.26-.18-.71-.18-1.09,0-.1.09-.18.17-.16.29.1.51.04.67-.22.25-.41.46-.84.56-1.3.06-.28-.22-.37-.41-.42-1.11-.29-1.64-1.39-2.64-1.83-.14-.06-.31-.25-.19-.43.16-.23.29.01.43.08.64.33,1.27.67,1.85,1.08.34.24.68.45.86.86.16.38.41.34.63.05.49-.64.97-1.28,1.46-1.92.17-.22.19-.44.04-.66-.12-.19-.26-.28-.54-.24-.28.05-.78.07-.34-.48.08-.1.04-.23-.09-.24-.27-.02-.59,0-.67.28-.08.31-.15.71.35.83.14.04.28.11.4.2.08.06.16.17.16.26,0,.13-.14.16-.25.14-.71-.1-.73.3-.63.88l-.02.02ZM69.62,69.72c-.26.05-.48.16-.49.43,0,.31.26.34.5.38.25.04.37-.03.34-.3-.03-.24-.05-.47-.35-.51Z" fill="#fff"/>
    <path d="M7.94,44.83v-.13c.02-1.35.02-1.34-1.35-1.3-.37,0-.64.12-.75.49-.04.15-.09.31-.3.26-.21-.05-.14-.24-.14-.38,0-.63,0-1.26.02-1.88,0-.13-.08-.32.17-.34.18,0,.2.11.24.24.1.39.39.48.75.48,1.27,0,2.54.02,3.81.03.38,0,.71-.08.78-.52.03-.19.12-.25.3-.24.24.02.19.19.19.33-.01.67-.03,1.34-.04,2.01,0,.11,0,.23-.13.27-.1.03-.25.03-.29-.09-.25-.8-.92-.59-1.48-.61-1.16-.03-1.16-.02-1.17,1.13v.06c.04.53-.27,1.35.11,1.52.56.25,1.33.07,2,.05.3,0,.39-.23.44-.48.04-.19.15-.25.33-.22.19.03.15.18.15.3,0,.67,0,1.34-.02,2.01,0,.11.05.27-.15.3-.14.02-.25,0-.3-.17-.16-.53-.6-.56-1.06-.57-1.14,0-2.28-.02-3.42-.04-.43,0-.8.06-.88.56-.03.16-.11.22-.26.21-.2-.02-.16-.18-.16-.3,0-.69.01-1.39.02-2.08,0-.11,0-.23.14-.24.12,0,.22.03.24.16.04.29.19.51.49.53.52.03,1.05.03,1.57,0,.13,0,.09-.22.09-.35v-1.04h.02l.04.04Z" fill="#fff"/>
    <path d="M78.54,27.34c-.3,1.08-1.05,1.94-.92,3.06.02.16-.06.25-.19.29-.13.04-.18-.09-.24-.17-.51-.61-.84-1.21-.34-2.02.34-.55.52-1.18.77-1.78.09-.2.14-.37.01-.6-.27-.5-.55-.74-1.06-.26-.17.16-.39.27-.6.39-.37.22-.62.51-.44.96.08.2,0,.28-.15.35-.18.08-.22-.09-.28-.19-.39-.57-.77-1.15-1.15-1.73-.07-.1-.17-.21,0-.33.12-.08.23-.11.34.02.35.37.7.21,1.05-.01.99-.63,1.99-1.25,2.98-1.88.36-.23.7-.49.47-1-.07-.16-.01-.24.12-.31.18-.09.22.06.28.16.64.98,1.27,1.96,1.9,2.95.11.18.18.39.25.59.26.76.1,1.4-.44,1.82-.5.39-1.17.39-1.84.01-.15-.09-.29-.19-.52-.34v.02ZM80.63,25.9c-.14-.62-.41-1.29-1-1.68-.47-.31-.77.31-1.17.47-.2.08-.37.23-.55.34-.17.1-.18.21-.06.37.31.42.57.87.91,1.26.31.36.75.43,1.2.26.42-.17.65-.5.69-1.02h-.02Z" fill="#fff"/>
    <path d="M56.18,11.34c.25-1.01.49-2.01.74-3.02.08-.33,0-.6-.32-.78-.13-.07-.29-.13-.18-.34.08-.16.22-.11.34-.08.55.13,1.11.26,1.66.4.12.03.26.07.23.25-.02.17-.14.2-.28.2-.55-.03-.67.33-.77.77-.31,1.34-.66,2.68-1,4.02-.06.21.05.6-.36.55-.35-.04-.71-.04-.85-.53-.45-1.51-.96-3-1.44-4.5-.04-.12-.09-.24-.22-.55-.33,1.39-.63,2.6-.9,3.82-.06.25.1.46.34.57.15.07.29.13.21.33s-.25.12-.39.09c-.55-.13-1.1-.26-1.66-.39-.13-.03-.27-.05-.21-.23.04-.13.11-.22.28-.21.51.03.66-.3.77-.72.28-1.13.58-2.26.85-3.39.1-.4.17-.84-.36-1.04-.13-.05-.15-.15-.13-.26.04-.19.19-.14.31-.11.53.13,1.06.26,1.59.38.28.07.26.31.32.51.44,1.42.88,2.84,1.32,4.26h.13-.02Z" fill="#fff"/>
    <path d="M14.08,27.4c-.91-.49-1.82-.99-2.73-1.48-.32-.17-.59-.1-.82.17-.1.11-.21.14-.34.04-.15-.12-.05-.23,0-.34.26-.47.53-.94.8-1.41.07-.12.12-.3.33-.22.16.06.14.21.11.33-.13.51.2.73.59.94,1.23.66,2.45,1.33,3.66,2.01.18.1.57.12.44.43-.13.3-.2.7-.72.71-1.55.04-3.11.13-4.66.2-.18,0-.37,0-.59.15,1.08.58,2.16,1.17,3.24,1.75.3.16.55.07.75-.17.09-.11.19-.19.33-.09.14.09.13.2.05.33-.29.51-.58,1.01-.87,1.52-.06.11-.13.23-.3.16-.14-.06-.19-.14-.13-.3.19-.48-.11-.72-.48-.92-1.05-.58-2.09-1.17-3.14-1.74-.36-.19-.73-.33-1.05.08-.1.12-.19.16-.33.05-.15-.12-.06-.23,0-.34.24-.43.5-.86.73-1.3.14-.27.37-.26.61-.27,1.23-.02,2.45-.05,3.68-.08h.77c.01-.07.03-.14.04-.21h.03Z" fill="#fff"/>
    <path d="M11.96,35.75c0-.76-.32-1.29-.72-1.79-.08-.11-.28-.2-.13-.38.16-.19.26.05.38.09.04,0,.07.05.11.08.91.66,1.22,1.53.93,2.62-.27,1-.53,2-.81,3-.05.17,0,.44-.26.46-.31.03-.22-.25-.26-.42-.09-.35-.32-.56-.66-.65-1.23-.32-2.45-.63-3.68-.93-.33-.08-.6,0-.81.28-.08.1-.08.32-.32.22-.28-.12-.08-.3-.05-.43.35-1.4.71-2.8,1.07-4.21.07-.29.21-.45.54-.45.35,0,.7-.05,1.05-.08.14,0,.32-.12.39.09.07.2-.1.26-.24.32-1.08.45-1.42,1.39-1.67,2.4-.11.45.04.71.49.81.19.05.38.15.57.15.25,0,.54.37.73,0,.18-.37.24-.8-.1-1.15-.12-.12-.27-.22-.42-.31-.18-.11-.14-.24-.08-.39.07-.16.17-.16.31-.12.74.2,1.48.4,2.21.59.14.04.26.07.21.25-.04.15-.07.3-.29.28-.24-.02-.49,0-.7.13-.34.22-.49.59-.48.95,0,.34.41.25.64.31,1.7.47,1.75.44,2.02-1.31.03-.17.04-.34.05-.42h-.02Z" fill="#fff"/>
    <path d="M24.79,12.17c1.28.04,2.11.77,2.67,1.81.54,1,.42,2-.23,2.93-.52.73-1.3,1.15-1.99,1.67-.45.34-.92.66-1.38.99-.1.07-.2.19-.33.03-.1-.12-.1-.22.02-.33.35-.36.19-.7-.06-1.05-.64-.9-1.28-1.8-1.91-2.71-.3-.44-.63-.78-1.23-.61-.11.03-.22.05-.27-.09-.05-.11.04-.15.11-.2,1.15-.74,2.18-1.67,3.46-2.21.36-.16.75-.25,1.15-.23h-.01ZM26.73,15.51c-.12-.91-.68-1.78-1.69-2.26-.98-.46-1.87-.02-2.69.55-.29.2-.3.47-.11.74.75,1.07,1.5,2.13,2.25,3.19.16.23.37.33.68.21.8-.3,1.56-1.37,1.55-2.43h.01Z" fill="#fff"/>
    <path d="M73.6,22.56c.21.1.61-.26.69.13.05.27-.39.27-.61.35q-1.35.52-2.37-.55c-.79-.84-1.59-1.67-2.38-2.52-.09-.1-.29-.17-.18-.36.12-.2.28-.12.45-.04.41.19.77.05,1.08-.24.86-.8,1.72-1.61,2.58-2.41.3-.28.44-.6.24-.98-.07-.14-.09-.24.04-.33.16-.11.23.04.32.12,1.06,1.1,2.11,2.2,3.17,3.29.17.17.18.3.07.5-.2.36-.37.73-.57,1.09-.05.1-.08.28-.27.21-.13-.05-.18-.16-.14-.32.25-1.14-.38-1.94-1.1-2.7-.36-.38-.7-.39-1.07-.03-.11.11-.25.19-.33.31-.15.22-.65.32-.41.66.27.39.67.72,1.23.46.1-.05.19-.1.3-.14.19-.07.28.05.38.18.12.15-.02.23-.11.31-.53.49-1.06.98-1.59,1.46-.1.09-.18.28-.37.12-.15-.13-.21-.26-.07-.44.15-.19.24-.41.22-.66-.02-.39-.26-.67-.54-.85-.29-.18-.4.22-.6.34-.04.02-.07.05-.1.08-1.2,1.11-1.2,1.18.05,2.26.57.49,1.2.79,2.01.68l-.02.02Z" fill="#fff"/>
    <path d="M38.08,88.15c.13-1.68.75-3.07,1.06-4.52.25-1.15.75-2.25.84-3.44.02-.24.19-.2.32-.22.7-.12,1.35-.31,1.93-.74.47-.34,1.41-.15,1.77.3.22.27.11.5-.13.66-.27.18-.57.3-.86.46-1.07.56-1.29,1.35-.67,2.36.54.87.5,1.15-.18,1.94-.28.32-.53.33-.84.07-.03-.03-.06-.06-.09-.09-1.15-1.05-1.18-1.06-1.59.42-.26.95-.72,1.8-1.11,2.68-.07.15-.18.28-.34.26-.18-.02-.11-.2-.12-.14h0ZM41.21,80.51c-.14.13-.78-.17-.52.43.18.42.08.75-.05,1.11-.12.32-.27.63-.39.96-.09.25,0,.47.24.6.31.15.65.17.95.05.27-.1.13-.38.07-.57-.23-.71-.2-1.4.14-2.07.21-.42.02-.55-.45-.51h0Z" fill="#fff"/>
    <path d="M17.81,24.38c-1.55,0-2.92-1.12-3.27-2.68-.32-1.42.38-2.68,1.85-3.33.12-.05.34-.02.32-.25-.09-.84.34-.46.67-.27.44.25.87.5,1.29.77.1.06.29.09.22.26-.08.21-.25.1-.39.06-.38-.12-.77-.17-1.17-.14-1.11.09-1.87.95-1.82,2.06.08,1.61,1.98,2.91,3.5,2.38.67-.24,1.12-.68,1.21-1.39.11-.85-.55-1.41-1.38-1.16-.15.05-.28.14-.4-.02-.1-.14.03-.24.11-.33.43-.46.86-.92,1.29-1.38.08-.08.16-.16.28-.13.13.03.16.16.12.26-.23.6.17.93.54,1.27.26.24.52.47.76.71.11.11.35.18.23.4-.09.16-.23.27-.44.21-.42-.12-.44.18-.53.45-.46,1.4-1.62,2.27-3.01,2.27l.02-.02Z" fill="#fff"/>
    <path d="M82.51,33.03c.05.73.11,1.33.13,1.94.04.93-.35,1.58-1.05,1.83-.75.27-1.77-.06-2.27-.76-.5-.69-.74-1.46-.73-2.31,0-.16.11-.36-.12-.45-.63-.25-.38-.48,0-.73.4-.27.78-.55,1.18-.82.13-.08.25-.28.44-.07.18.19.04.29-.07.43-.42.57-.72,1.18-.75,1.9-.02.58.12,1.12.55,1.55.33.33.75.46,1.2.28.43-.17.53-.56.51-.96-.03-.52-.1-1.03-.16-1.55-.04-.35-.05-.69.02-1.03.11-.61.39-1.1,1.04-1.29.66-.2,1.22.02,1.67.48.49.5.71,1.12.76,1.81.02.3-.1.66.3.83.05.02.06.16.06.24,0,.12-1.29,1.17-1.39,1.13-.22-.09-.28-.24-.12-.46.33-.45.51-.95.53-1.51.02-.4-.05-.77-.26-1.12-.21-.34-.48-.58-.91-.5-.4.07-.47.41-.52.73-.03.17-.04.34-.05.39v.02Z" fill="#fff"/>
    <path d="M32.26,14.62c-.85,0-1.4-.41-1.71-1.17-.38-.92-.75-1.84-1.13-2.76-.17-.41-.35-.83-.94-.65-.18.05-.23-.08-.27-.2-.05-.14.08-.19.17-.23.67-.27,1.33-.54,2-.8.09-.04.21-.07.28.06.07.13.09.23-.07.32-.47.28-.38.67-.2,1.08.38.89.73,1.8,1.15,2.68.41.86,1.01,1.04,1.89.69.89-.36,1.22-.92.92-1.78-.34-.98-.75-1.93-1.14-2.89-.13-.31-.34-.49-.7-.47-.17.01-.37.07-.4-.19-.03-.25.19-.25.33-.31.46-.19.93-.38,1.4-.56.14-.05.27-.15.4.03.14.2-.03.26-.15.34-.36.25-.33.57-.19.92.38.92.75,1.84,1.12,2.76.47,1.19.18,1.99-.95,2.59-.5.27-1.38.53-1.81.53h0Z" fill="#fff"/>
    <path d="M48.02,8.31v-1.17c0-.46-.02-.88-.58-1.01-.15-.03-.22-.13-.2-.29.02-.2.17-.16.29-.16h1.71c.13,0,.28-.01.3.17.02.15-.05.27-.2.29-.6.04-.6.5-.61.9-.03.93-.02,1.86-.04,2.79-.02,1.38-.62,2.01-2.03,2.09-.37.02-.75.01-1.11-.04-1.18-.16-1.73-.79-1.74-1.96,0-1.02,0-2.03.02-3.05,0-.41-.08-.74-.56-.8-.15-.02-.24-.07-.23-.24,0-.19.15-.19.28-.19.7,0,1.4.01,2.1.02.13,0,.27,0,.28.19,0,.16-.08.23-.23.25-.51.09-.57.47-.57.88,0,.93-.04,1.86,0,2.79.02,1,.49,1.46,1.42,1.5,1.05.04,1.57-.38,1.65-1.4.04-.52,0-1.04,0-1.56h.06Z" fill="#fff"/>
    <path d="M9.14,54.87c1.2,0,2.25-.65,2.54-1.59.31-1-.16-2.13-1.15-2.81-.13-.09-.37-.13-.24-.36.14-.23.3-.05.45,0,1.3.57,2.07,2.11,1.75,3.51-.33,1.4-1.77,2.43-3.35,2.39-2.12-.05-3.41-1.72-2.94-3.81.03-.12.21-.27,0-.4-.69-.43-.19-.55.19-.7.45-.17.89-.34,1.34-.52.14-.05.3-.16.4.03s-.09.25-.21.33c-.8.54-1.16,1.28-1.01,2.23.18,1.07,1.01,1.68,2.23,1.68h0Z" fill="#fff"/>
    <path d="M65.98,16.19c.98-.71,1.97-1.42,2.95-2.14.37-.27.41-.59.09-.94-.11-.12-.19-.23-.06-.39.16-.19.28-.03.39.04.49.29.97.59,1.45.89.12.08.3.13.22.34-.06.15-.19.16-.33.13-.56-.13-.96.18-1.37.48-1.25.91-2.51,1.82-3.76,2.72-.21.15-.38.29-.69.1-.32-.2-.3-.43-.24-.72l.96-4.77c.07-.34.13-.69-.09-1-.09-.12-.11-.22-.01-.34.12-.16.22-.08.33,0,.57.36,1.15.71,1.72,1.06.12.07.23.15.15.31-.07.14-.17.15-.32.11-.36-.11-.64-.07-.74.37-.26,1.22-.53,2.44-.8,3.67.04.03.09.06.13.09h.02Z" fill="#fff"/>
    <path d="M79.74,53.93c.13-.66.26-1.31.39-1.97.03-.13.04-.26.23-.24.15.02.24.11.24.26-.01.6.44.64.87.77.79.23,1.53.16,2.27-.22.82-.42,1.8-.52,2.49-1.23.14-.14.41-.09.35.23-.12.68-.27,1.36-.4,2.03-.02.11-.05.21-.2.2-.13,0-.22-.06-.22-.18-.04-.64-.4-.54-.82-.37-.36.15-.73.29-1.1.4-.47.14-.65.29-.17.66.29.22.54.51.81.75.32.28.64.63.97,0,.08-.15.23-.11.35-.06.13.06.07.18.05.28-.11.55-.22,1.1-.34,1.65-.02.1,0,.24-.17.22-.08,0-.21-.06-.22-.11-.15-1.01-1.13-1.38-1.65-2.1-.61-.83-1.48-1.06-2.44-1.17-.38-.04-.7-.02-.87.37-.05.13-.13.23-.29.19-.23-.06-.13-.23-.14-.37h.01Z" fill="#fff"/>
    <path d="M73.72,77.85c.39-.29.69-.5.97-.74.65-.57.42-1.85-.37-2.17-.26-.11-.34.08-.45.24-.25.38-.52.74-.79,1.11-.19.27-.44.42-.83.31.44-.51.81-1.05,1.12-1.63.09-.17.21-.52.2-.52-.48-.2-.61-.56-.58-1.04,0-.1-.22,0-.29.1-.18.27-.32.57-.52.82-.09.12-.25.31-.43.16-.16-.14-.27-.38-.06-.57.56-.49.9-1.08,1.07-1.79.08-.31.4-.6.75-.51.4.1.24.47.21.76-.04.3-.04.6-.15.89-.05.13-.11.31.05.41.2.13.33-.05.45-.16.19-.18.3-.41.43-.64.3-.53.91-.74,1.3-.52.23.13.28.25.09.44-.27.28-.54.56-.82.83-.35.34-.42.64.06.92.47.28.75.72,1,1.18.49.89.34,1.48-.54,1.99-.56.32-1.15.28-1.86.12h0Z" fill="#fff"/>
    <path d="M86.86,46.1c0,.69-.02,1.38,0,2.08.01.36-.09.56-.46.64-.32.07-.63.17-.94.28-.17.06-.31.12-.42-.11-.1-.22.07-.26.19-.34.53-.32.88-.77,1.05-1.35.12-.4.06-.66-.47-.65-1.27.02-2.54,0-3.81,0-.43,0-.85.03-.95.58-.03.16-.14.21-.29.19-.18-.03-.15-.18-.15-.3v-2.01c0-.12-.02-.27.16-.31.2-.04.27.09.3.25.09.4.4.5.75.5,1.36,0,2.71,0,4.07.02.4,0,.49-.21.4-.55-.14-.56-.45-1.02-.92-1.37-.15-.11-.45-.15-.27-.46.18-.31.39-.05.55,0,1.21.36,1.21.37,1.21,1.63v1.3-.02Z" fill="#fff"/>
    <path d="M61.18,9.53c-.03-.3-.17-.48-.39-.61-.12-.07-.14-.16-.08-.27.06-.11.16-.13.28-.08.71.29,1.41.58,2.12.87.09.04.16.09.13.18-.03.11-.11.2-.24.17-.59-.13-.75.27-.92.69-.42,1.04-.86,2.08-1.29,3.12-.17.41-.33.84.2,1.13.16.09.13.18.07.32-.09.17-.22.12-.33.08-.67-.27-1.33-.54-2-.81-.1-.04-.2-.09-.18-.23.02-.16.12-.22.27-.21.45.04.68-.23.83-.59.48-1.16.96-2.32,1.43-3.48.04-.1.07-.2.09-.27h.01Z" fill="#fff"/>
    <path d="M86.44,39.97c.03.24.07.36-.07.41s-.21-.04-.26-.13c-.24-.49-.64-.42-1.07-.34-1.05.21-2.1.39-3.16.59-.51.1-1.09.13-1.08.87,0,.14-.1.16-.22.18-.14.02-.2-.05-.22-.17-.14-.74-.28-1.49-.43-2.23-.03-.14.04-.2.16-.23.11-.03.21-.03.28.1.28.51.71.45,1.19.36,1.09-.22,2.19-.41,3.29-.6.44-.08.82-.2.8-.74,0-.15.05-.25.22-.24.16,0,.16.12.18.22.14.7.27,1.4.38,1.96h.01Z" fill="#fff"/>
    <path d="M24.53,68.77c.62.02.85.48,1.07.92.15.31-.2.86-.58.94-.43.09-.6-.19-.64-.54-.06-.45-.02-.9.15-1.32Z" fill="#fff"/>
  </g>
  <path d="M74.41,58.62c-.69.88-1.36,1.79-2.08,2.64-4.67,5.47-10.67,8.39-17.85,9.01-.63.05-1.27.09-1.9.11-.61.02-1.23,0-1.86,0,.51.43,2.62,1.02,4.2,1.2,1.48.18,2.97.22,4.46.13,1.48-.08,2.92-.41,4.38-.64-1.5.91-3.13,1.47-4.8,1.92-7.06,1.87-13.69.71-19.98-2.78-.3-.17-.61-.32-.92-.49-.04-.02-.08-.04-.12-.07,0,.05,0-.03,0,.03,1.97,2.44,4.5,4.26,7.34,5.55,1.28.58,2.63.99,3.98,1.4-4.69-.17-9.02-1.46-12.96-3.99-3.93-2.52-6.87-5.94-9.2-9.93.09,1.29.46,2.47.92,3.62,1.15,2.88,2.89,5.37,5.14,7.52.07.07.13.18.26.15h0c-.27.34-.43-.03-.57-.12-2.18-1.47-4.15-3.19-5.8-5.23-4.03-4.97-5.74-10.7-5.71-17,0-.3,0-.6-.05-.92-.88,1.96-1.23,4.03-1.34,6.15-.11,2.14.2,4.25.68,6.47-1.58-1.38-3.05-8.58-2.72-12.88.24-3.18,1.28-7.55,4.3-12.37-2.19.55-6.59,7.62-7.27,11.79.55-10.29,5.58-17.59,14.51-22.42-.89-.21-4.01.79-6.17,1.92-1.92,1.01-3.6,2.36-5.28,3.71,5.64-8.01,13.52-11.54,23.27-11.36-1.35-.64-2.78-.95-4.25-1.16-1.52-.21-3.05-.24-4.59-.14-1.51.1-2.97.48-4.45.66,8.91-4.28,17.54-3.55,25.96,1.42.16-.3-.11-.45-.27-.62-2.79-3.06-6.24-5.03-10.24-6.12-.17-.05-.34-.09-.51-.14-.03,0-.05-.06-.16-.18,10.05.73,17.25,5.59,22.12,14.1-.71-4.28-2.73-7.87-5.73-10.95q.34-.04.58.12c5.43,3.85,8.87,8.99,10.25,15.46.45,2.13.63,4.28.57,6.45v.66c.33-.12.34-.35.41-.53,1.28-3.75,1.36-7.55.44-11.38-.03-.14-.17-.3.08-.35.26-.06.26.2.32.33.97,2.11,1.66,4.31,2.02,6.61.97,6.3-.51,12.09-3.76,17.51-.09.15-.17.3-.26.45-.05.06-.11.13,0,.19.02,0,.08-.06.12-.1,1.69-1.24,3-2.83,4.12-4.57,1.4-2.18,2.26-4.26,2.93-6.88-.19,4.68-1.48,9.02-4.08,12.95-2.59,3.93-6.12,6.86-10.25,9.15,1.17-.06,2.25-.37,3.31-.74,3.03-1.08,5.66-2.78,7.93-5.03.14-.14.23-.47.56-.31h0l-.03.02ZM43.83,63.26h-.02c-.17.62-.68.91-1.22,1.16-.16.08-.32.13-.48.2-.08.04-.15.09-.14.19.02.15.13.14.24.14,1.15.04,2.7-1.15,2.97-2.3.17-.71.04-1.35-.52-1.84-.59-.52-1.3-.6-2.03-.36-.79.26-1.24,1.05-1.07,1.78.16.69.91,1.11,1.76,1.02.16-.02.35-.27.51,0h0ZM35.39,54.28c.73-.25,1.26-.83,1.95-1.14.44-.2.56-.48.56-.95-.02-6.5,0-13,0-19.49,0-.24,0-.48-.02-.71-.11-.93-.66-1.54-1.53-1.86-.61-.23-.72-.14-.72.5v13.45c0,2.64.06,5.28-.06,7.93-.03.77-.27,1.52-.16,2.3h-.09s0,.04,0,.06c.02-.02.04-.05.06-.07v-.02ZM41.31,38.63c.53-1.09,1.31-1.92,2.46-2.3,1.89-.62,2.14-2.11,1.81-3.39-.75-2.94-2.89-4.45-5.71-5.21-.6-.16-.67.02-.66.56.02,3.73,0,7.45,0,11.18v12.22c0,.51.12.6.57.37.64-.32,1.33-.54,2.04-.7,1.11-.25,2.18-.22,3.13.49.66.49,1.17.49,1.85,0,.41-.3.86-.5,1.38-.57,1.39-.21,2.63.29,3.86.8q.65.27.65-.44v-23.65c.03-.3-.09-.37-.39-.3-1.4.35-2.58,1.01-3.43,2.22-.76,1.09-.97,2.3-.99,3.57-.03,1.42-.48,2.52-1.99,3-.61.19-1.1.63-1.41,1.2-.07.13-.3.33.1.41,1.38.27,2.19,1.68,2.09,3.12-.06.87-.05,1.73.09,2.59.3,1.91,1.19,3.55,2.55,5.03-1.02-.08-1.87-.4-2.6-.96-2.03-1.55-2.7-3.71-2.71-6.12,0-1.84-.81-2.83-2.68-3.1h-.02ZM62.72,61.06c-4.71-5.36-13.41-8.71-22.25-6.57-4.37,1.06-10.97,5.01-11.16,6.48,11.13-6.67,22.28-6.61,33.41.09ZM56.61,54.41c-.13-1.05-.29-1.98-.29-2.93,0-3.81-.02-7.62-.02-11.43v-9.42c0-.66-.08-.71-.71-.53-.95.28-1.57,1.11-1.57,2.23,0,6.69,0,13.38,0,20.07,0,.19-.03.39.18.52.77.47,1.54.95,2.42,1.48h-.01ZM31.98,57.37c.6-.65,1.21-1.29,1.81-1.94.08-.09.12-.23.14-.36.13-.72.27-1.44.3-2.18.15-4.15.04-8.31.07-12.46,0-2.06,0-4.11,0-6.17,0-.74-.2-1.37-.86-1.77-.2-.13-.44-.28-.67-.17-.25.12-.11.39-.11.58,0,5.11-.03,10.21,0,15.32.02,3.05-.04,6.1-.68,9.14h0ZM59.95,57.43c0-.26,0-.34,0-.42-.48-2.29-.72-4.61-.71-6.95.02-4.37,0-8.74,0-13.11,0-1.41,0-2.81,0-4.22,0-.47-.18-.5-.55-.35-.69.27-1.08.91-1.08,1.83v16.88c0,.91.13,1.81.12,2.72-.02,1.63,1.23,2.44,2.21,3.63h.01ZM48.12,26.17c0-1.13-.94-2.06-2.08-2.06s-2.08.91-2.09,2.05c0,1.13.93,2.05,2.08,2.06,1.14,0,2.09-.93,2.09-2.05ZM53.41,62.29c.21-.19.4-.34.55-.52.26-.33.28-.66-.04-.98-.62-.61-2.19-.58-2.77.05-.37.41-.36.86-.09,1.31.11.18.28.32.44.5-.13.11-.26.21-.38.33-.71.69-.57,1.44.35,1.84.5.22,1.02.24,1.54.14.65-.13,1.22-.42,1.39-1.11.16-.65-.29-1.03-.75-1.38-.07-.05-.14-.1-.23-.17h0ZM48.99,61.3c-.21.27-.36.45-.5.64-.56.76-.98,1.58-1.13,2.51-.03.17-.12.46.21.42.33-.04.92.26.97-.18.15-1.38.64-2.63,1.29-3.84.14-.27,0-.38-.3-.38-.7,0-1.4,0-2.1,0-.83,0-1.01.19-1.06,1.14.81-.37,1.66-.35,2.62-.31ZM39.47,60.41c-.59.13-1.12.25-1.65.36-.15.03-.33.04-.31.25.02.23.22.17.36.17.44,0,.54.25.53.63-.02.6,0,1.21,0,1.81,0,.48-.06.87-.67.88-.11,0-.22.02-.23.17,0,.18.12.2.26.2h2.36c.13,0,.28,0,.27-.19,0-.14-.12-.17-.23-.17-.66,0-.68-.44-.68-.93,0-1.03,0-2.07,0-3.17h0Z" fill="#fff"/>
</svg>