<svg id="SvgjsSvg1006" width="774.5" height="455" xmlns="http://www.w3.org/2000/svg" version="1.1" xmlns:xlink="http://www.w3.org/1999/xlink" xmlns:svgjs="http://svgjs.com/svgjs"><defs id="SvgjsDefs1007"><marker id="SvgjsMarker1016" markerWidth="14" markerHeight="10" refX="10" refY="5" viewBox="0 0 14 10" orient="auto" markerUnits="userSpaceOnUse" stroke-dasharray="0,0"><path id="SvgjsPath1017" d="M0,0 L14,5 L0,10 L0,0" fill="#ff6666" stroke="#ff6666" stroke-width="1"></path></marker><marker id="SvgjsMarker1026" markerWidth="14" markerHeight="10" refX="10" refY="5" viewBox="0 0 14 10" orient="auto" markerUnits="userSpaceOnUse" stroke-dasharray="0,0"><path id="SvgjsPath1027" d="M0,0 L14,5 L0,10 L0,0" fill="#ff6666" stroke="#ff6666" stroke-width="1"></path></marker><marker id="SvgjsMarker1036" markerWidth="14" markerHeight="10" refX="10" refY="5" viewBox="0 0 14 10" orient="auto" markerUnits="userSpaceOnUse" stroke-dasharray="0,0"><path id="SvgjsPath1037" d="M0,0 L14,5 L0,10 L0,0" fill="#ff6666" stroke="#ff6666" stroke-width="1"></path></marker><marker id="SvgjsMarker1040" markerWidth="14" markerHeight="10" refX="10" refY="5" viewBox="0 0 14 10" orient="auto" markerUnits="userSpaceOnUse" stroke-dasharray="0,0"><path id="SvgjsPath1041" d="M0,0 L14,5 L0,10 L0,0" fill="#ff6666" stroke="#ff6666" stroke-width="1"></path></marker><marker id="SvgjsMarker1044" markerWidth="14" markerHeight="10" refX="10" refY="5" viewBox="0 0 14 10" orient="auto" markerUnits="userSpaceOnUse" stroke-dasharray="0,0"><path id="SvgjsPath1045" d="M0,0 L14,5 L0,10 L0,0" fill="#3399ff" stroke="#3399ff" stroke-width="1"></path></marker></defs><g id="SvgjsG1008" transform="translate(88,154)"><path id="SvgjsPath1009" d="M 0 0L 120 0L 120 40L 0 40Z" stroke="none" fill="none"></path><g id="SvgjsG1010"><text id="SvgjsText1011" font-family="微软雅黑" text-anchor="middle" font-size="18px" width="120px" fill="#323232" font-weight="700" align="middle" lineHeight="125%" anchor="middle" family="微软雅黑" size="18px" weight="700" font-style="" opacity="1" y="4.25" transform="rotate(0)"><tspan id="SvgjsTspan1012" dy="22" x="60"><tspan id="SvgjsTspan1013" style="text-decoration:;">DNA</tspan></tspan></text></g></g><g id="SvgjsG1014"><path id="SvgjsPath1015" d="M147.03662271347315 194.26814959221332C 25 317 28 26 144.57373070692978 152.8951566937506" stroke="#ff6666" stroke-width="2" fill="none" marker-end="url(#SvgjsMarker1016)"></path></g><g id="SvgjsG1018" transform="translate(383,154)"><path id="SvgjsPath1019" d="M 0 0L 120 0L 120 40L 0 40Z" stroke="none" fill="none"></path><g id="SvgjsG1020"><text id="SvgjsText1021" font-family="微软雅黑" text-anchor="middle" font-size="18px" width="120px" fill="#323232" font-weight="700" align="middle" lineHeight="125%" anchor="middle" family="微软雅黑" size="18px" weight="700" font-style="" opacity="1" y="4.25" transform="rotate(0)"><tspan id="SvgjsTspan1022" dy="22" x="60"><tspan id="SvgjsTspan1023" style="text-decoration:;">RNA</tspan></tspan></text></g></g><g id="SvgjsG1024"><path id="SvgjsPath1025" d="M442.03515217667046 194.2628092042076C 321 316 324 25 439.58490292122576 152.86109177606468" stroke="#ff6666" stroke-width="2" fill="none" marker-end="url(#SvgjsMarker1026)"></path></g><g id="SvgjsG1028" transform="translate(613,154)"><path id="SvgjsPath1029" d="M 0 0L 120 0L 120 40L 0 40Z" stroke="none" fill="none"></path><g id="SvgjsG1030"><text id="SvgjsText1031" font-family="微软雅黑" text-anchor="middle" font-size="18px" width="120px" fill="#323232" font-weight="700" align="middle" lineHeight="125%" anchor="middle" family="微软雅黑" size="18px" weight="700" font-style="" opacity="1" y="4.25" transform="rotate(0)"><tspan id="SvgjsTspan1032" dy="22" x="60"><tspan id="SvgjsTspan1033" style="text-decoration:;">Protein</tspan></tspan></text></g></g><g id="SvgjsG1034"><path id="SvgjsPath1035" d="M504 174L609.4 174" stroke="#ff6666" stroke-width="2" fill="none" marker-end="url(#SvgjsMarker1036)"></path></g><g id="SvgjsG1038"><path id="SvgjsPath1039" d="M212 160.2L302 160.2" stroke="#ff6666" stroke-width="2" fill="none" marker-end="url(#SvgjsMarker1040)"></path></g><g id="SvgjsG1042"><path id="SvgjsPath1043" d="M302 184L212 184" stroke="#3399ff" stroke-width="2" fill="none" marker-end="url(#SvgjsMarker1044)"></path></g><g id="SvgjsG1046" transform="translate(88,67)"><path id="SvgjsPath1047" d="M 0 0L 120 0L 120 40L 0 40Z" stroke="none" fill="none"></path><g id="SvgjsG1048"><text id="SvgjsText1049" font-family="微软雅黑" text-anchor="middle" font-size="16px" width="120px" fill="#ff8000" font-weight="700" align="middle" lineHeight="125%" anchor="middle" family="微软雅黑" size="16px" weight="700" font-style="" opacity="1" y="6" transform="rotate(0)"><tspan id="SvgjsTspan1050" dy="20" x="60"><tspan id="SvgjsTspan1051" style="text-decoration:;">Genomics</tspan></tspan></text></g></g><g id="SvgjsG1052" transform="translate(377.5,67)"><path id="SvgjsPath1053" d="M 0 0L 131 0L 131 40L 0 40Z" stroke="none" fill="none"></path><g id="SvgjsG1054"><text id="SvgjsText1055" font-family="微软雅黑" text-anchor="middle" font-size="16px" width="131px" fill="#ff8000" font-weight="700" align="middle" lineHeight="125%" anchor="middle" family="微软雅黑" size="16px" weight="700" font-style="" opacity="1" y="6" transform="rotate(0)"><tspan id="SvgjsTspan1056" dy="20" x="65.5"><tspan id="SvgjsTspan1057" style="text-decoration:;">Transcriptomics</tspan></tspan></text></g></g><g id="SvgjsG1058" transform="translate(613,67)"><path id="SvgjsPath1059" d="M 0 0L 120 0L 120 40L 0 40Z" stroke="none" fill="none"></path><g id="SvgjsG1060"><text id="SvgjsText1061" font-family="微软雅黑" text-anchor="middle" font-size="16px" width="120px" fill="#ff8000" font-weight="700" align="middle" lineHeight="125%" anchor="middle" family="微软雅黑" size="16px" weight="700" font-style="" opacity="1" y="6" transform="rotate(0)"><tspan id="SvgjsTspan1062" dy="20" x="60"><tspan id="SvgjsTspan1063" style="text-decoration:;">Proteomics</tspan></tspan></text></g></g><g id="SvgjsG1064" transform="translate(88,242)"><path id="SvgjsPath1065" d="M 0 0L 120 0L 120 40L 0 40Z" stroke="none" fill="none"></path><g id="SvgjsG1066"><text id="SvgjsText1067" font-family="微软雅黑" text-anchor="middle" font-size="15px" width="120px" fill="#9933ff" font-weight="700" align="middle" lineHeight="125%" anchor="middle" family="微软雅黑" size="15px" weight="700" font-style="" opacity="1" y="7.625" transform="rotate(0)"><tspan id="SvgjsTspan1068" dy="18" x="60"><tspan id="SvgjsTspan1069" style="text-decoration:;">Variants</tspan></tspan></text></g></g><g id="SvgjsG1070" transform="translate(377.5,242)"><path id="SvgjsPath1071" d="M 0 0L 131 0L 131 40L 0 40Z" stroke="none" fill="none"></path><g id="SvgjsG1072"><text id="SvgjsText1073" font-family="微软雅黑" text-anchor="middle" font-size="15px" width="131px" fill="#9933ff" font-weight="700" align="middle" lineHeight="125%" anchor="middle" family="微软雅黑" size="15px" weight="700" font-style="" opacity="1" y="7.625" transform="rotate(0)"><tspan id="SvgjsTspan1074" dy="18" x="65.5"><tspan id="SvgjsTspan1075" style="text-decoration:;">Expression</tspan></tspan></text></g></g><g id="SvgjsG1076" transform="translate(600.5,242)"><path id="SvgjsPath1077" d="M 0 0L 145 0L 145 40L 0 40Z" stroke="none" fill="none"></path><g id="SvgjsG1078"><text id="SvgjsText1079" font-family="微软雅黑" text-anchor="middle" font-size="15px" width="145px" fill="#9933ff" font-weight="700" align="middle" lineHeight="125%" anchor="middle" family="微软雅黑" size="15px" weight="700" font-style="" opacity="1" y="7.625" transform="rotate(0)"><tspan id="SvgjsTspan1080" dy="18" x="72.5"><tspan id="SvgjsTspan1081" style="text-decoration:;">Translation</tspan></tspan></text></g></g><g id="SvgjsG1082" transform="translate(71.5,304)"><path id="SvgjsPath1083" d="M 0 0L 153 0L 153 40L 0 40Z" stroke="none" fill="none"></path><g id="SvgjsG1084"><text id="SvgjsText1085" font-family="微软雅黑" text-anchor="middle" font-size="13px" width="153px" fill="#4d9900" font-weight="700" align="middle" lineHeight="125%" anchor="middle" family="微软雅黑" size="13px" weight="700" font-style="" opacity="1" y="9.375" transform="rotate(0)"><tspan id="SvgjsTspan1086" dy="16" x="76.5"><tspan id="SvgjsTspan1087" style="text-decoration:;">SNP / InDel / SV / CNV</tspan></tspan></text></g></g><g id="SvgjsG1088" transform="translate(316.5,304)"><path id="SvgjsPath1089" d="M 0 0L 253 0L 253 40L 0 40Z" stroke="none" fill="none"></path><g id="SvgjsG1090"><text id="SvgjsText1091" font-family="微软雅黑" text-anchor="middle" font-size="13px" width="253px" fill="#4d9900" font-weight="700" align="middle" lineHeight="125%" anchor="middle" family="微软雅黑" size="13px" weight="700" font-style="" opacity="1" y="9.375" transform="rotate(0)"><tspan id="SvgjsTspan1092" dy="16" x="126.5"><tspan id="SvgjsTspan1093" style="text-decoration:;">mRNA / miRNA / lncRNA / circRNA</tspan></tspan></text></g></g><g id="SvgjsG1094" transform="translate(596.5,304)"><path id="SvgjsPath1095" d="M 0 0L 153 0L 153 40L 0 40Z" stroke="none" fill="none"></path><g id="SvgjsG1096"><text id="SvgjsText1097" font-family="微软雅黑" text-anchor="middle" font-size="13px" width="153px" fill="#4d9900" font-weight="700" align="middle" lineHeight="125%" anchor="middle" family="微软雅黑" size="13px" weight="700" font-style="" opacity="1" y="9.375" transform="rotate(0)"><tspan id="SvgjsTspan1098" dy="16" x="76.5"><tspan id="SvgjsTspan1099" style="text-decoration:;">translatable RNA</tspan></tspan></text></g></g><g id="SvgjsG1100" transform="translate(71.5,351)"><path id="SvgjsPath1101" d="M 0 0L 153 0L 153 40L 0 40Z" stroke="none" fill="none"></path><g id="SvgjsG1102"><text id="SvgjsText1103" font-family="微软雅黑" text-anchor="middle" font-size="13px" width="153px" fill="#ff33ff" font-weight="700" align="middle" lineHeight="125%" anchor="middle" family="微软雅黑" size="13px" weight="700" font-style="" opacity="1" y="9.375" transform="rotate(0)"><tspan id="SvgjsTspan1104" dy="16" x="76.5"><tspan id="SvgjsTspan1105" style="text-decoration:;">DNA-seq</tspan></tspan></text></g></g><g id="SvgjsG1106" transform="translate(366.5,351)"><path id="SvgjsPath1107" d="M 0 0L 153 0L 153 40L 0 40Z" stroke="none" fill="none"></path><g id="SvgjsG1108"><text id="SvgjsText1109" font-family="微软雅黑" text-anchor="middle" font-size="13px" width="153px" fill="#ff33ff" font-weight="700" align="middle" lineHeight="125%" anchor="middle" family="微软雅黑" size="13px" weight="700" font-style="" opacity="1" y="9.375" transform="rotate(0)"><tspan id="SvgjsTspan1110" dy="16" x="76.5"><tspan id="SvgjsTspan1111" style="text-decoration:;">RNA-seq</tspan></tspan></text></g></g><g id="SvgjsG1112" transform="translate(596.5,351)"><path id="SvgjsPath1113" d="M 0 0L 153 0L 153 40L 0 40Z" stroke="none" fill="none"></path><g id="SvgjsG1114"><text id="SvgjsText1115" font-family="微软雅黑" text-anchor="middle" font-size="13px" width="153px" fill="#ff33ff" font-weight="700" align="middle" lineHeight="125%" anchor="middle" family="微软雅黑" size="13px" weight="700" font-style="" opacity="1" y="9.375" transform="rotate(0)"><tspan id="SvgjsTspan1116" dy="16" x="76.5"><tspan id="SvgjsTspan1117" style="text-decoration:;">Ribo-seq</tspan></tspan></text></g></g><g id="SvgjsG1118" transform="translate(71.5,390)"><path id="SvgjsPath1119" d="M 0 0L 153 0L 153 40L 0 40Z" stroke="none" fill="none"></path><g id="SvgjsG1120"><text id="SvgjsText1121" font-family="微软雅黑" text-anchor="middle" font-size="13px" width="153px" fill="#ff33ff" font-weight="700" align="middle" lineHeight="125%" anchor="middle" family="微软雅黑" size="13px" weight="700" font-style="" opacity="1" y="9.375" transform="rotate(0)"><tspan id="SvgjsTspan1122" dy="16" x="76.5"><tspan id="SvgjsTspan1123" style="text-decoration:;">BS-seq</tspan></tspan></text></g></g></svg>