<svg width="48" height="48" viewBox="0 0 48 48" fill="none" xmlns="http://www.w3.org/2000/svg">
<g clip-path="url(#clip0_1522_29611)">
<path d="M25.6525 2.6665C25.4578 2.70759 25.2631 2.74689 25.0398 2.79334C25.1255 2.80406 25.1863 2.81835 25.2488 2.81835C26.8155 2.83621 28.0267 3.56507 28.9931 4.73517C29.8899 5.82131 30.3115 7.11824 30.5437 8.48842C30.7384 9.64423 30.7367 10.8036 30.6563 11.9684C30.592 12.908 30.5384 13.8494 30.667 14.7873C30.8474 16.0985 31.4083 17.2418 32.3105 18.194C33.2305 19.1658 34.0915 20.1841 34.8347 21.2916C35.8833 22.8547 36.6997 24.534 37.2124 26.3525C37.743 28.2318 37.9591 30.1415 37.7858 32.0905C37.759 32.3924 37.6929 32.6907 37.6554 32.9908C37.6465 33.0623 37.6465 33.1677 37.6894 33.2106C38.1521 33.684 38.3146 34.2896 38.4611 34.9059C38.5183 35.1435 38.5844 35.3793 38.6558 35.6115C38.7702 35.9867 38.972 36.3118 39.2596 36.5797C39.7098 36.9978 39.9545 37.5123 39.9956 38.125C40.0528 38.9467 39.6759 40.2723 38.4665 40.8225C38.002 41.0333 37.5232 41.2173 37.0748 41.4567C36.3192 41.8586 35.7279 42.4696 35.1259 43.0626C34.6453 43.536 34.1862 44.0327 33.6735 44.4703C32.6499 45.3439 31.4834 45.5868 30.2132 45.0902C29.4504 44.7919 28.9056 44.2435 28.5662 43.4914C28.5251 43.4021 28.4143 43.3074 28.3179 43.2842C26.6083 42.8518 24.8629 42.7518 23.1122 42.8411C22.3244 42.8822 21.542 43.043 20.7595 43.152C20.5952 43.1752 20.4898 43.2663 20.4005 43.4146C19.7038 44.5668 18.6569 45.1063 17.3314 45.0348C16.8777 45.0098 16.4257 44.8258 15.9863 44.6758C15.1056 44.3739 14.2409 44.0202 13.3549 43.7325C12.4706 43.4449 11.5506 43.4271 10.627 43.4521C9.86422 43.4735 9.1693 43.2663 8.63517 42.6911C7.97241 41.9765 7.82413 41.1065 8.21 40.2562C8.59944 39.3987 8.5512 38.5627 8.41901 37.6945C8.33148 37.1246 8.29039 36.5637 8.57443 36.0242C8.8406 35.5168 9.28363 35.2131 9.77668 34.9791C10.4216 34.6719 11.0343 34.3235 11.5863 33.8644C11.9043 33.6 12.0258 33.3642 11.8954 32.9087C11.5434 31.6796 11.5953 30.4184 11.7989 29.1626C12.1615 26.9206 13.0065 24.8627 14.2248 22.9637C14.8912 21.924 15.6486 20.9433 16.3793 19.9465C17.2064 18.8175 17.8316 17.5973 17.9745 16.1914C18.0513 15.4358 18.0353 14.6676 18.0245 13.9048C18.0031 12.4167 17.9138 10.9269 17.9281 9.43879C17.9442 7.78457 18.4122 6.25362 19.443 4.92989C20.354 3.76157 21.5545 3.06845 23.014 2.83443C23.2587 2.79513 23.516 2.82907 23.7661 2.82728C23.8161 2.82728 23.8643 2.80942 23.9215 2.7987C23.6893 2.75047 23.4695 2.70759 23.2516 2.6665C24.0519 2.6665 24.8522 2.6665 25.6525 2.6665ZM15.4753 30.7578C15.4521 30.7578 15.4271 30.7578 15.4039 30.7578C14.4732 28.4409 14.6679 26.106 15.3431 23.7551C15.277 23.8105 15.227 23.8694 15.1913 23.9373C14.9591 24.375 14.7054 24.8037 14.5053 25.2539C13.8854 26.6419 13.5942 28.0889 13.8694 29.6038C14.0623 30.6649 14.5393 31.5742 15.4485 32.2102C16.0256 32.6139 16.6026 33.0141 17.176 33.4232C17.778 33.8537 18.3836 34.2806 18.9713 34.7326C19.4751 35.1203 19.9003 35.5847 20.1575 36.1796C20.4844 36.9335 20.2165 37.7606 19.5091 38.1804C19.384 38.2536 19.2482 38.309 19.1035 38.3787C19.1571 38.443 19.2018 38.5001 19.2518 38.5519C19.7949 39.1361 20.2736 39.7613 20.5434 40.5277C20.5791 40.6295 20.7006 40.7242 20.806 40.7725C21.9975 41.3137 23.2569 41.4406 24.5432 41.3316C25.9151 41.2155 27.2121 40.8171 28.4447 40.2062C28.5126 40.1722 28.5858 40.1097 28.6126 40.0418C28.9502 39.1897 29.3182 38.3376 29.4254 37.4211C29.5326 36.4958 29.5308 35.5579 29.6201 34.6308C29.6809 34.0162 29.7791 33.3981 29.9346 32.7997C30.0668 32.2906 30.4187 31.9083 30.951 31.7761C31.1475 31.7279 31.2083 31.6439 31.2458 31.467C31.4351 30.581 32.105 30.1094 32.9929 30.2523C34.0862 30.4273 35.008 30.9293 35.7297 31.7725C35.8851 31.9547 36.0084 32.1762 36.1013 32.3978C36.2245 32.6907 36.2406 32.7193 36.6622 32.6764C36.5872 32.3585 36.5532 32.0315 36.4317 31.7404C36.062 30.8561 35.3885 30.2433 34.5596 29.7932C34.4167 29.7164 34.3595 29.6324 34.3559 29.4698C34.3506 29.0554 34.3238 28.6409 34.3059 28.2265C34.2452 26.7491 33.92 25.3396 33.2162 24.0302C33.0697 23.7569 32.9036 23.4925 32.7196 23.1781C32.8804 24.2428 33.0447 25.2396 33.1769 26.24C33.3144 27.2868 33.2055 28.8053 32.9679 29.3019C32.9179 29.0572 32.8786 28.8482 32.8321 28.6427C32.6124 27.6548 32.2319 26.7223 31.8049 25.8113C31.1029 24.3107 30.3758 22.819 29.672 21.3184C29.0306 19.95 28.4483 18.5584 28.0803 17.0882C28.0463 16.956 28.0124 16.8238 27.9713 16.6595C27.3782 16.9882 26.8101 17.2847 26.2581 17.6152C25.7633 17.9117 25.3006 18.2637 24.8004 18.5513C23.3749 19.3695 22.3423 19.2319 21.2169 18.3673C20.7238 17.9886 20.2093 17.6366 19.7038 17.2758C19.6109 17.2097 19.5055 17.1597 19.3322 17.0596C19.3322 17.6206 19.359 18.1172 19.3268 18.6102C19.2232 20.2109 18.7981 21.6989 17.887 23.0513C16.4936 25.1199 15.7433 27.4244 15.5414 29.9093C15.5182 30.1933 15.495 30.4774 15.4718 30.7632L15.4753 30.7578ZM19.6091 41.7371C19.5269 41.4013 19.4698 41.0565 19.3554 40.7332C19.1411 40.1222 18.7373 39.622 18.3157 39.145C17.6244 38.3626 17.042 37.5176 16.6044 36.5655C16.3489 36.0099 16.0559 35.4632 15.7147 34.9541C15.4253 34.5218 15.068 34.1288 14.6982 33.759C14.357 33.4196 13.68 33.3035 13.2334 33.8269C13.0887 33.9966 12.9351 34.1556 12.7904 34.3253C12.2973 34.8987 11.7185 35.3668 11.0432 35.708C10.7467 35.858 10.4484 36.0063 10.1518 36.1564C9.75703 36.3529 9.58911 36.6851 9.59626 37.1139C9.59804 37.2532 9.61233 37.3944 9.62484 37.5337C9.66593 37.9606 9.72845 38.3876 9.74989 38.8146C9.77847 39.3487 9.63913 39.8489 9.42297 40.3401C9.01031 41.2762 9.46406 42.0819 10.4752 42.2284C10.7288 42.2659 10.9932 42.2605 11.2505 42.2462C11.9222 42.2123 12.5796 42.2981 13.2298 42.4553C14.2123 42.6929 15.1413 43.0769 16.0666 43.4699C16.6133 43.7022 17.1849 43.8129 17.7798 43.7183C18.7713 43.5593 19.568 42.7107 19.6091 41.7371ZM31.3708 33.0123C31.0975 33.1999 30.9939 33.3178 30.9492 33.6804C30.8671 34.3628 30.7956 35.0488 30.7724 35.7366C30.7259 37.0799 30.5312 38.3858 30.0257 39.6399C29.6934 40.4634 29.4915 41.3102 29.5541 42.2141C29.6469 43.545 30.9367 44.2363 31.9836 43.9916C32.5784 43.8522 33.0501 43.495 33.4681 43.0626C33.92 42.5928 34.3577 42.1069 34.8329 41.6621C35.4957 41.044 36.2192 40.5081 37.0552 40.1347C37.4053 39.9793 37.7519 39.7989 38.0574 39.5702C38.5594 39.1968 38.8541 38.6913 38.6773 38.0464C38.604 37.7802 38.4325 37.5248 38.2521 37.3086C37.7805 36.7459 37.4625 36.1171 37.3017 35.4007C37.2446 35.1488 37.1731 34.8987 37.0838 34.6576C36.8962 34.1574 36.2763 33.8555 35.7654 34.0055C35.7243 34.018 35.6868 34.0448 35.6547 34.0734C35.1419 34.5254 34.5417 34.8076 33.8772 34.9309C33.0536 35.0845 32.3123 34.9291 31.8335 34.1699C31.6549 33.8876 31.5656 33.55 31.4387 33.2356C31.4119 33.1713 31.3976 33.1016 31.3708 33.0105V33.0123ZM23.0283 17.9814C23.5624 17.9368 24.0055 17.726 24.436 17.4651C25.2899 16.9471 26.1527 16.4433 27.0031 15.9217C27.2139 15.7913 27.4157 15.6305 27.5801 15.4465C27.8105 15.1893 27.7801 14.8856 27.5175 14.6623C27.3443 14.5158 27.1495 14.3854 26.9459 14.2853C26.0491 13.8459 25.1398 13.4314 24.2484 12.9848C23.3766 12.5489 22.5745 12.5847 21.776 13.1831C21.2097 13.6083 20.5916 13.9638 19.9967 14.3514C19.8413 14.4533 19.6841 14.5515 19.5394 14.664C19.3572 14.8052 19.3126 14.9981 19.3519 15.2214C19.4072 15.5251 19.5859 15.7555 19.8199 15.927C20.6631 16.5416 21.5116 17.1507 22.3727 17.7402C22.5585 17.8671 22.8068 17.9028 23.0265 17.9796L23.0283 17.9814ZM24.3449 11.7486C24.3538 11.7022 24.361 11.6736 24.3663 11.6468C24.4538 11.1913 24.5896 10.7536 24.9201 10.4088C25.2613 10.0551 25.7561 10.0283 26.0848 10.3713C26.2313 10.5231 26.3332 10.7393 26.3975 10.9447C26.5725 11.5003 26.4814 12.0595 26.3421 12.6079C26.3135 12.7186 26.3117 12.8044 26.4314 12.8383C26.6208 12.8919 26.7851 13.0706 27.0066 12.9687C27.0281 12.9598 27.037 12.9205 27.0477 12.8919C27.4782 11.8201 27.5336 10.7393 27.121 9.64602C26.6636 8.43304 25.3042 8.43483 24.5968 8.9779C23.8072 9.58349 23.4981 10.4392 23.3784 11.3842C23.3713 11.436 23.4302 11.5343 23.4767 11.5468C23.7589 11.6236 24.0483 11.6807 24.3431 11.7468L24.3449 11.7486ZM20.0146 13.0724C19.9217 12.7544 19.8199 12.4846 19.7663 12.2077C19.6913 11.829 19.7413 11.4503 19.9146 11.1055C20.1397 10.6589 20.6595 10.6375 20.8935 11.0698C21.0329 11.3252 21.1061 11.6164 21.2061 11.8933C21.2347 11.9701 21.2526 12.0523 21.2776 12.1434C21.4312 12.0595 21.5652 12.0041 21.6742 11.9183C21.7421 11.8665 21.8153 11.7683 21.8153 11.6897C21.826 10.9626 21.6742 10.2766 21.2061 9.69782C20.9453 9.37627 20.6095 9.18691 20.1825 9.22621C19.6234 9.27623 19.1982 9.6478 19.0821 10.2713C18.9999 10.7179 18.9767 11.1823 18.991 11.6361C19.0071 12.1631 19.1428 12.674 19.384 13.1492C19.4269 13.2331 19.4626 13.3653 19.6073 13.2957C19.7592 13.2224 19.9039 13.1349 20.0164 13.0741L20.0146 13.0724Z" fill="black"/>
<path d="M23.1694 16.92C22.5406 16.9146 22.0761 16.8217 21.6777 16.5716C21.1972 16.2697 20.7416 15.9232 20.2932 15.573C20.0449 15.3801 20.095 15.055 20.3736 14.9817C20.4755 14.9549 20.6273 15.0175 20.7256 15.0836C21.1275 15.3587 21.5026 15.6766 21.9153 15.9339C22.5566 16.334 23.248 16.318 23.9161 16.0143C24.4877 15.7535 25.0308 15.4337 25.59 15.1461C25.8276 15.0246 26.0723 14.921 26.3152 14.8102C26.5117 14.7209 26.6314 14.8317 26.71 14.9871C26.794 15.155 26.7583 15.3122 26.5814 15.4015C25.7329 15.8356 24.8897 16.284 24.0268 16.6895C23.7196 16.8342 23.3623 16.8717 23.1694 16.92Z" fill="black"/>
</g>
<defs>
<clipPath id="clip0_1522_29611">
<rect width="32" height="42.6738" fill="white" transform="translate(8 2.6665)"/>
</clipPath>
</defs>
</svg>
