<?xml version="1.0" encoding="UTF-8"?>
<svg id="_图层_1" data-name="图层_1" xmlns="http://www.w3.org/2000/svg" version="1.1" viewBox="0 0 512 512">
  <!-- Generator: Adobe Illustrator 30.0.0, SVG Export Plug-In . SVG Version: 2.1.1 Build 123)  -->
  <path d="M510.45,228.1c-7.8-71.8-45.3-134.7-100-176.1-5-3.8-10.1-7.4-15.3-10.8-3.6-2.4-7.3-4.6-11.1-6.8-4.3-2.5-8.8-4.9-13.2-7.1C336.15,9.9,297.25.1,255.95.1c-9.5,0-18.8.5-28,1.5-31.5,3.4-61.3,12.6-88.3,26.4-8.6,4.4-17,9.3-25,14.6-28.6,19-53.2,43.5-72.1,72.1-5.3,8-10.2,16.4-14.6,25-13.8,27-23,56.8-26.4,88.3-1,9.2-1.5,18.6-1.5,28s.5,18.8,1.5,28c5.9,54.6,29.1,104,63.8,142.8,6.2,7,12.8,13.6,19.8,19.8,38.8,34.8,88.2,57.9,142.8,63.8,9.2,1,18.6,1.5,28,1.5,46.6,0,90.3-12.5,128-34.3,9.2-5.3,18-11.2,26.4-17.6,61.7-46.5,101.6-120.5,101.6-203.9,0-9.5-.5-18.8-1.5-28ZM385.35,68.4c51.4,35.5,87.4,91.5,96.4,156.2-57.2-13.6-99.8-65.1-99.8-126.5,0-10.2,1.2-20.2,3.4-29.7ZM61.65,173.5c5.5,5.5,14.3,5.5,19.8,0s5.5-14.3,0-19.8l-18.7-18.7c18.3-29.1,43-53.8,72.1-72.1l18.7,18.7c5.5,5.5,14.3,5.5,19.8,0s5.5-14.3,0-19.8l-12.8-12.8c20.4-9.4,42.4-15.9,65.4-18.9-6.1,46.1-25.9,87.9-55.2,121.1l-31.9-31.9c-5.5-5.5-14.3-5.5-19.8,0s-5.5,14.3,0,19.8l31.9,31.9c-33.1,29.2-74.9,49.1-121,55.1,3-23.1,9.5-45.1,18.9-65.4l12.8,12.8ZM104.95,426.9l31.8-31.8c5.5-5.5,5.5-14.3,0-19.8h0c-5.5-5.5-14.3-5.5-19.8,0l-31.8,31.8c-29.3-33.1-49.2-74.9-55.2-121,23.1,3,45.1,9.5,65.4,18.9l-12.9,13c-5.5,5.5-5.5,14.3,0,19.8h0c5.5,5.5,14.3,5.5,19.8,0l18.8-18.8c29.1,18.3,53.8,43,72.1,72.1l-18.8,18.8c-5.5,5.5-5.5,14.3,0,19.8s14.3,5.5,19.8,0l12.9-13c9.4,20.4,15.9,42.4,18.9,65.4-46.1-6-87.9-25.9-121-55.2ZM255.95,484.1h-1.5c-3.4-31.5-12.6-61.3-26.4-88.3-4.4-8.6-9.3-17-14.6-25-19-28.6-43.5-53.1-72.1-72.1-8-5.3-16.4-10.2-25-14.6-27-13.8-56.8-23-88.3-26.4v-3c54.6-5.9,104-29.1,142.8-63.8,6.9-6.2,13.6-12.9,19.8-19.8,34.8-38.8,57.9-88.2,63.8-142.8h1.5c36.5,0,71,8.6,101.6,23.8-61.7,46.6-101.6,120.6-101.6,204s39.9,157.4,101.6,204.2c-30.6,15.2-65.1,23.8-101.6,23.8ZM383.95,444.8c-60.4-41-100-110.2-100-188.7,0-64.6,26.9-123,70.1-164.5-.1,2.2-.1,4.3-.1,6.5,0,77.7,56.1,142.3,130,155.5v2.5c0,78.5-39.6,147.7-100,188.7Z" fill="#fff"/>
</svg>